# xmcd
#
# Track frame offsets: 
#        150
#        21793
#        41850
#        64409
#        85094
#        104760
#        122012
#        147736
#        168618
#        179793
#        206915
#        228541
#
# Disc length: 3280 seconds
#
# Revision: 0
# Processed by: cddbd v1.5.2PL0 Copyright (c) Steve Scherf et al.
# Submitted via: ExactAudioCopy v1.0b2
#
DISCID=c10cce0c
DTITLE=Nina Vidal - The Open-Ended Fantasy
DYEAR=2010
DGENRE=R&B
TTITLE0=Games
TTITLE1=Inside Outside
TTITLE2=Let's Just Stay In
TTITLE3=Cigarette&wine
TTITLE4=Good Love
TTITLE5=My Love
TTITLE6=Little Bit
TTITLE7=Fragile
TTITLE8=The Open-Ended Fantasy
TTITLE9=Starry Night
TTITLE10=Believe Again
TTITLE11=Inside Outside (Original Demo)
EXTD=
EXTT0=
EXTT1=
EXTT2=
EXTT3=
EXTT4=
EXTT5=
EXTT6=
EXTT7=
EXTT8=
EXTT9=
EXTT10=
EXTT11=
PLAYORDER=
